<svg width="14" height="14" viewBox="0 0 14 14" fill="none" xmlns="http://www.w3.org/2000/svg">
<path fill-rule="evenodd" clip-rule="evenodd" d="M2.46492 0.482346C2.0744 0.0918221 1.44123 0.0918221 1.05071 0.482346C0.660182 0.872871 0.660182 1.50604 1.05071 1.89656L6.15415 7L1.05071 12.1034C0.660182 12.494 0.660182 13.1271 1.05071 13.5177C1.44123 13.9082 2.0744 13.9082 2.46492 13.5177L7.37891 8.60367L12.2929 13.5177C12.6834 13.9082 13.3166 13.9082 13.7071 13.5177C14.0976 13.1271 14.0976 12.494 13.7071 12.1034L8.60367 7L13.7071 1.89656C14.0976 1.50604 14.0976 0.87287 13.7071 0.482346C13.3166 0.0918218 12.6834 0.0918224 12.2929 0.482346L7.37891 5.39633L2.46492 0.482346Z" fill="#1F1A2D"/>
</svg>
