<svg width="18" height="18" viewBox="0 0 18 18" fill="none" xmlns="http://www.w3.org/2000/svg">
<path d="M15.7299 3.74C15.6633 3.48379 15.4979 3.26443 15.2699 3.13L12.5499 1.5C12.3218 1.36478 12.0493 1.32569 11.7924 1.39132C11.5355 1.45695 11.3152 1.62194 11.1799 1.85L6.64987 9.43C6.54122 9.61028 6.49222 9.82025 6.50987 10.03L6.72987 12.76C6.74304 12.9198 6.79443 13.074 6.87971 13.2098C6.96499 13.3455 7.08165 13.4588 7.21987 13.54C7.37422 13.6316 7.55038 13.6799 7.72987 13.68C7.86824 13.6801 8.00489 13.6494 8.12987 13.59L10.6399 12.49C10.8288 12.4034 10.9861 12.2601 11.0899 12.08L15.6199 4.5C15.6874 4.38681 15.7318 4.2614 15.7507 4.13098C15.7696 4.00055 15.7625 3.86768 15.7299 3.74ZM13.3299 4.48L9.56987 10.78C9.51999 10.8601 9.44668 10.923 9.35987 10.96L8.69987 11.25C8.68294 11.2586 8.66407 11.2627 8.64509 11.2619C8.62611 11.2611 8.60766 11.2554 8.59155 11.2453C8.57544 11.2352 8.56221 11.2212 8.55315 11.2045C8.54409 11.1878 8.53952 11.169 8.53987 11.15L8.47987 10.44C8.46957 10.3427 8.49059 10.2446 8.53987 10.16L12.2999 3.86C12.3264 3.82049 12.3669 3.7924 12.4132 3.78129C12.4595 3.77018 12.5083 3.77685 12.5499 3.8L13.2699 4.23C13.3094 4.25657 13.3375 4.29701 13.3486 4.34331C13.3597 4.3896 13.353 4.43839 13.3299 4.48Z" fill="#366EFF"/>
<path d="M12.8098 16.64H5.18982C4.36235 16.64 3.56876 16.3113 2.98365 15.7262C2.39854 15.141 2.06982 14.3475 2.06982 13.52V5.89999C2.06982 5.07159 2.39821 4.27698 2.98304 3.69027C3.56787 3.10357 4.36143 2.77264 5.18982 2.76999H7.70982C7.84115 2.76999 7.97118 2.79585 8.09251 2.84611C8.21383 2.89636 8.32407 2.97002 8.41693 3.06288C8.50979 3.15574 8.58345 3.26598 8.6337 3.38731C8.68396 3.50863 8.70982 3.63867 8.70982 3.76999C8.70982 3.90131 8.68396 4.03135 8.6337 4.15267C8.58345 4.274 8.50979 4.38424 8.41693 4.4771C8.32407 4.56995 8.21383 4.64361 8.09251 4.69387C7.97118 4.74412 7.84115 4.76999 7.70982 4.76999H5.18982C4.89187 4.77263 4.60701 4.89284 4.39725 5.10447C4.18749 5.3161 4.06981 5.60202 4.06982 5.89999V13.52C4.06982 13.817 4.18782 14.1019 4.39786 14.3119C4.60791 14.522 4.89278 14.64 5.18982 14.64H12.8098C13.1069 14.64 13.3917 14.522 13.6018 14.3119C13.8118 14.1019 13.9298 13.817 13.9298 13.52V9.70999C13.9298 9.44477 14.0352 9.19042 14.2227 9.00288C14.4103 8.81535 14.6646 8.70999 14.9298 8.70999C15.195 8.70999 15.4494 8.81535 15.6369 9.00288C15.8245 9.19042 15.9298 9.44477 15.9298 9.70999V13.52C15.9298 14.3475 15.6011 15.141 15.016 15.7262C14.4309 16.3113 13.6373 16.64 12.8098 16.64Z" fill="#366EFF"/>
</svg>
