<svg width="14" height="18" viewBox="0 0 14 18" fill="none" xmlns="http://www.w3.org/2000/svg">
<path d="M7.00035 9.94001C6.43032 9.94199 5.87252 9.77476 5.3976 9.45951C4.92267 9.14426 4.55198 8.69516 4.33246 8.16908C4.11295 7.64301 4.05448 7.06362 4.16448 6.5043C4.27447 5.94498 4.54797 5.43088 4.95035 5.0271C5.35272 4.62333 5.86587 4.34804 6.4248 4.2361C6.98374 4.12416 7.56333 4.18061 8.09016 4.39829C8.61699 4.61597 9.06738 4.9851 9.38428 5.45893C9.70118 5.93276 9.87035 6.48997 9.87035 7.06001C9.87036 7.8221 9.5683 8.55313 9.03036 9.09295C8.49242 9.63277 7.76244 9.93736 7.00035 9.94001ZM7.00035 6.19001C6.82547 6.18803 6.65396 6.23821 6.50773 6.33414C6.36149 6.43007 6.24715 6.5674 6.17931 6.7286C6.11147 6.8898 6.0932 7.06756 6.12684 7.23919C6.16047 7.41082 6.24449 7.56854 6.36816 7.6922C6.49182 7.81587 6.64954 7.89989 6.82117 7.93352C6.9928 7.96716 7.17056 7.94889 7.33176 7.88105C7.49296 7.81321 7.63029 7.69887 7.72622 7.55263C7.82215 7.4064 7.87233 7.23489 7.87035 7.06001C7.87035 6.82927 7.77869 6.60798 7.61554 6.44482C7.45238 6.28167 7.23109 6.19001 7.00035 6.19001Z" fill="#366EFF"/>
<path d="M7.00014 17.23C6.60266 17.227 6.21944 17.0816 5.92014 16.82C4.33014 15.43 0.640137 11.7 0.640137 7.11999C0.651279 6.27512 0.830924 5.44097 1.16855 4.6664C1.50617 3.89184 1.99498 3.19245 2.60634 2.6092C3.2177 2.02596 3.93931 1.57059 4.7289 1.26978C5.51849 0.968964 6.36017 0.828757 7.20463 0.857372C8.04909 0.885986 8.87935 1.08285 9.64677 1.43642C10.4142 1.78999 11.1033 2.29316 11.6738 2.91645C12.2443 3.53975 12.6846 4.27062 12.969 5.06626C13.2534 5.8619 13.3762 6.7063 13.3301 7.54999C13.1101 12.08 9.57014 15.55 8.06014 16.84C7.76325 17.0899 7.38819 17.2279 7.00014 17.23ZM7.00014 2.76999C5.94767 2.76288 4.92948 3.14381 4.14014 3.83999C3.63319 4.36897 3.24234 4.99803 2.99265 5.68684C2.74295 6.37566 2.63992 7.10904 2.69014 7.83999C3.03014 10.84 5.37014 13.5 6.69014 14.76C6.77808 14.8467 6.89663 14.8953 7.02014 14.8953C7.14365 14.8953 7.26219 14.8467 7.35014 14.76C8.70014 13.48 11.1901 10.71 11.3501 7.41999C11.4266 6.33999 11.0967 5.2704 10.4251 4.42117C9.75348 3.57194 8.7887 3.00441 7.72014 2.82999C7.48209 2.79111 7.24134 2.77104 7.00014 2.76999Z" fill="#366EFF"/>
</svg>
