<svg width="14" height="18" viewBox="0 0 14 18" fill="none" xmlns="http://www.w3.org/2000/svg">
<path d="M9.47998 7.18999H4.47998C4.21476 7.18999 3.96041 7.29534 3.77287 7.48288C3.58534 7.67042 3.47998 7.92477 3.47998 8.18999C3.47998 8.4552 3.58534 8.70956 3.77287 8.89709C3.96041 9.08463 4.21476 9.18999 4.47998 9.18999H9.47998C9.7452 9.18999 9.99955 9.08463 10.1871 8.89709C10.3746 8.70956 10.48 8.4552 10.48 8.18999C10.48 7.92477 10.3746 7.67042 10.1871 7.48288C9.99955 7.29534 9.7452 7.18999 9.47998 7.18999Z" fill="#989898"/>
<path d="M9.47998 10.25H4.47998C4.21476 10.25 3.96041 10.3554 3.77287 10.5429C3.58534 10.7304 3.47998 10.9848 3.47998 11.25C3.47998 11.5152 3.58534 11.7696 3.77287 11.9571C3.96041 12.1446 4.21476 12.25 4.47998 12.25H9.47998C9.7452 12.25 9.99955 12.1446 10.1871 11.9571C10.3746 11.7696 10.48 11.5152 10.48 11.25C10.48 10.9848 10.3746 10.7304 10.1871 10.5429C9.99955 10.3554 9.7452 10.25 9.47998 10.25Z" fill="#989898"/>
<path d="M10.8201 2.07999H10.4801V1.64999C10.4801 1.38478 10.3747 1.13042 10.1872 0.942887C9.99966 0.755351 9.74531 0.649994 9.48009 0.649994C9.21488 0.649994 8.96052 0.755351 8.77299 0.942887C8.58545 1.13042 8.48009 1.38478 8.48009 1.64999V2.07999H5.48009V1.64999C5.48009 1.38478 5.37474 1.13042 5.1872 0.942887C4.99966 0.755351 4.74531 0.649994 4.48009 0.649994C4.21488 0.649994 3.96052 0.755351 3.77299 0.942887C3.58545 1.13042 3.48009 1.38478 3.48009 1.64999V2.07999H3.18009C2.79934 2.08128 2.42262 2.15805 2.07173 2.30587C1.72084 2.45369 1.40274 2.66962 1.13584 2.94117C0.868937 3.21272 0.658532 3.5345 0.516795 3.88789C0.375058 4.24128 0.304802 4.61927 0.310092 4.99999V14.53C0.310092 15.2912 0.612467 16.0212 1.1507 16.5594C1.68893 17.0976 2.41892 17.4 3.18009 17.4H10.8201C11.197 17.4 11.5702 17.3258 11.9184 17.1815C12.2666 17.0373 12.583 16.8259 12.8495 16.5594C13.116 16.2929 13.3274 15.9765 13.4716 15.6283C13.6159 15.2801 13.6901 14.9069 13.6901 14.53V4.99999C13.6954 4.61927 13.6251 4.24128 13.4834 3.88789C13.3417 3.5345 13.1312 3.21272 12.8643 2.94117C12.5974 2.66962 12.2793 2.45369 11.9285 2.30587C11.5776 2.15805 11.2008 2.08128 10.8201 2.07999ZM11.6901 14.48C11.6901 14.7107 11.5984 14.932 11.4353 15.0952C11.2721 15.2583 11.0508 15.35 10.8201 15.35H3.18009C2.94935 15.35 2.72807 15.2583 2.56491 15.0952C2.40175 14.932 2.31009 14.7107 2.31009 14.48V4.99999C2.31009 4.76926 2.40175 4.54797 2.56491 4.38481C2.72807 4.22165 2.94935 4.12999 3.18009 4.12999H3.52009V4.55999C3.52009 4.82521 3.62545 5.07956 3.81299 5.2671C4.00052 5.45464 4.25488 5.55999 4.52009 5.55999C4.78531 5.55999 5.03966 5.45464 5.2272 5.2671C5.41474 5.07956 5.52009 4.82521 5.52009 4.55999V4.07999H8.52009V4.50999C8.52009 4.77521 8.62545 5.02956 8.81299 5.2171C9.00052 5.40464 9.25488 5.50999 9.52009 5.50999C9.78531 5.50999 10.0397 5.40464 10.2272 5.2171C10.4147 5.02956 10.5201 4.77521 10.5201 4.50999V4.07999H10.8601C11.0908 4.07999 11.3121 4.17165 11.4753 4.33481C11.6384 4.49797 11.7301 4.71926 11.7301 4.94999L11.6901 14.48Z" fill="#989898"/>
</svg>
