<svg width="15" height="16" viewBox="0 0 15 16" fill="none" xmlns="http://www.w3.org/2000/svg">
<path fill-rule="evenodd" clip-rule="evenodd" d="M9.74268 3.64679C11.5139 5.41804 11.5139 8.2898 9.74268 10.061C7.97144 11.8323 5.09968 11.8323 3.32843 10.061C1.55719 8.2898 1.55719 5.41804 3.32843 3.64679C5.09968 1.87555 7.97144 1.87555 9.74268 3.64679ZM11.6216 10.9592C13.6984 8.39252 13.5435 4.61923 11.1569 2.23258C8.6046 -0.319714 4.46652 -0.319714 1.91422 2.23258C-0.638074 4.78487 -0.638074 8.92296 1.91422 11.4753C4.15014 13.7112 7.60308 13.9883 10.1407 12.3067L13.2227 15.3888C13.6133 15.7793 14.2464 15.7793 14.637 15.3888C15.0275 14.9982 15.0275 14.3651 14.637 13.9745L11.6216 10.9592Z" fill="#847E95" fill-opacity="0.5"/>
</svg>
